# xmcd
#
# Track frame offsets: 
#        150
#        20672
#        28691
#        40638
#        57079
#        68512
#        83351
#        103953
#        114833
#        136100
#        144032
#        163573
#        178732
#        193290
#        200092
#        215957
#        219873
#        225982
#        245275
#        266017
#        283439
#        291783
#        298848
#        315851
#
# Disc length: 4430 seconds
#
# Revision: 0
# Processed by: cddbd v1.5.1PL0 Copyright (c) Steve Scherf et al.
# Submitted via: ExactAudioCopy v0.95b2
#
DISCID=5e114c18
DTITLE=Sage Francis - Still Sickly Business
DYEAR=2005
DGENRE=Hip-Hop
TTITLE0=Hey Bobby (remixed by Sumone, cuts by DJ Stumpy) 03
TTITLE1=Love Love Love (feat Anonjondoe, prod by Joe Beats, cuts by DJ
TTITLE1=Mekalek) 04
TTITLE2=Stuck (feat Slug, prod by Ant) 04
TTITLE3=Garden Gnomes (prod by Danger Mouse) 03
TTITLE4=Come Come Now (prod by Joe Beats) 00
TTITLE5=Strange Famous spoken word (live on 90.3 WRIU) 00
TTITLE6=Back Packer (AOI live at the Met Cafe) 00
TTITLE7=Killing Time (live on 90.3 WRIU) 96
TTITLE8=Eye of the Tiger (prod by MF Shalem B, feat Joe Beats and Shal
TTITLE8=em on vocals) 00
TTITLE9=Time of my Life redux (prod and cuts by MF Shalem B) 00
TTITLE10=Locksmith (snippet verse from a Macromantics song, prod by Jo
TTITLE10=ker 70) 05
TTITLE11=My Head (prod by Jel, feat Sole) 02
TTITLE12=Andy Kaufman (prod by Joe Beats) 00
TTITLE13=Damage 96 (live on 90.3 WRIU) 96
TTITLE14=Doomage (prod by MF Doom, feat Slug, Brother Ali and Joe Beat
TTITLE14=s on vocals) 04
TTITLE15=99 Rappers (live at Rock the Bells, CA) 05
TTITLE16=Pen to the Gun Fight (live at Dedbeat, UK) 04
TTITLE17=Majority Rule (prod by Joe Beats) 00
TTITLE18=Threewrite (prod by Joe Beats) 03
TTITLE19=Life is What Distracts You from Death (live on 90.3 WRIU) 98
TTITLE20=KFC (N8 Ball) 98
TTITLE21=Whore Monger Freestyle (live on Kevin Beacham's radio show) 0
TTITLE21=2
TTITLE22=Whore Monger (prod by Joe Beats) 00
TTITLE23=Mullet (live at the Met Cafe, Providence) 98
EXTD=
EXTT0=
EXTT1=
EXTT2=
EXTT3=
EXTT4=
EXTT5=
EXTT6=
EXTT7=
EXTT8=
EXTT9=
EXTT10=
EXTT11=
EXTT12=
EXTT13=
EXTT14=
EXTT15=
EXTT16=
EXTT17=
EXTT18=
EXTT19=
EXTT20=
EXTT21=
EXTT22=
EXTT23=
PLAYORDER=
